<svg version="1.2" xmlns="http://www.w3.org/2000/svg" viewBox="0 0 734 516" width="734" height="516"><style>.a{fill:#828282}</style><path class="a" d="m733.7 181.7c0.4-11.9 0-23.8-1-35.6-1.1-11.8-2.9-23.6-5.5-35.2-2.6-11.6-5.8-23-9.8-34.2-4-11.2-8.7-22.1-14.1-32.7-3.6-4.3-7.6-8.3-11.9-12-4.3-3.6-8.9-6.9-13.8-9.7-4.9-2.8-10-5.2-15.3-7.2-5.3-1.9-10.7-3.4-16.3-4.4q-34.8-3.2-69.6-5.4-34.9-2.2-69.8-3.5-34.9-1.3-69.8-1.7-34.9-0.3-69.8 0.2-34.8-0.6-69.6-0.2-34.8 0.3-69.5 1.5-34.8 1.3-69.5 3.5-34.7 2.1-69.4 5.2-6.8 1.3-13.4 3.5-6.5 2.2-12.7 5.3-6.2 3.2-11.9 7.1-5.6 4-10.7 8.8c-30 27.7-33.3 75-36.6 115q-1.8 27-2.8 54-0.9 27-0.9 54 0 27 0.9 54 1 27 2.8 54 0.3 8.4 1.1 16.8 0.8 8.4 2.1 16.8 1.2 8.3 2.9 16.6 1.7 8.3 3.9 16.5 1.5 6.3 3.7 12.3 2.3 6.1 5.3 11.8 3 5.7 6.7 11.1 3.6 5.3 7.9 10.1 5.1 5 10.8 9.2 5.8 4.2 12.1 7.5 6.3 3.3 13.1 5.7 6.7 2.3 13.7 3.6 26.9 3.3 54 5.7 27 2.3 54.1 3.7 27.1 1.4 54.3 1.8 27.1 0.4 54.3-0.2c116.6 1.7 219 0 340-9.3q7.1-1.3 14.1-3.5 6.9-2.3 13.3-5.6 6.5-3.4 12.4-7.6 6-4.2 11.2-9.3 3.5-3.5 6.5-7.4 3.1-3.9 5.6-8.1 2.6-4.2 4.6-8.7 2.1-4.5 3.6-9.2 4.5-13.7 7.8-27.7 3.3-14 5.5-28.2 2.2-14.3 3.2-28.6 1-14.4 0.8-28.8c1.4-18.7 1.4-131.3 1.4-151.3zm-442 171.3v-206.3l197.3 103.6c-55.3 30.7-128.3 65.4-197.3 102.7z"/></svg>